<svg xmlns="http://www.w3.org/2000/svg" xmlns:xlink="http://www.w3.org/1999/xlink" contentStyleType="text/css" data-diagram-type="SEQUENCE" height="469px" preserveAspectRatio="none" style="width:762px;height:469px;background:#FFFFFF;" version="1.1" viewBox="0 0 762 469" width="762px" zoomAndPan="magnify"><title>Diagrama de Sequ&#234;ncia - HU3 (Leonardo): Utiliza&#231;&#227;o do Coringa.</title><defs/><g><text fill="#000000" font-family="sans-serif" font-size="14" font-weight="bold" lengthAdjust="spacing" textLength="510.7881" x="126.6328" y="27.9951">Diagrama de Sequ&#234;ncia - HU3 (Leonardo): Utiliza&#231;&#227;o do Coringa.</text><rect fill="none" height="148.4688" style="stroke:#000000;stroke-width:1.5;" width="745.0537" x="10" y="222.9922"/><g><title>Usuario</title><rect fill="#000000" fill-opacity="0.00000" height="269.8672" width="8" x="45.6021" y="118.5938"/><line style="stroke:#181818;stroke-width:0.5;stroke-dasharray:5,5;" x1="49" x2="49" y1="118.5938" y2="388.4609"/></g><g><title>App</title><rect fill="#000000" fill-opacity="0.00000" height="269.8672" width="8" x="381.564" y="118.5938"/><line style="stroke:#181818;stroke-width:0.5;stroke-dasharray:5,5;" x1="384.8887" x2="384.8887" y1="118.5938" y2="388.4609"/></g><g><title>Banco de Dados</title><rect fill="#000000" fill-opacity="0.00000" height="269.8672" width="8" x="681.1411" y="118.5938"/><line style="stroke:#181818;stroke-width:0.5;stroke-dasharray:5,5;" x1="684.2285" x2="684.2285" y1="118.5938" y2="388.4609"/></g><g class="participant participant-head" data-participant="Usuario"><text fill="#000000" font-family="sans-serif" font-size="14" lengthAdjust="spacing" textLength="53.2041" x="20" y="115.292">Usuario</text><ellipse cx="49.6021" cy="50.7969" fill="#E2E2F0" rx="8" ry="8" style="stroke:#181818;stroke-width:0.5;"/><path d="M49.6021,58.7969 L49.6021,85.7969 M36.6021,66.7969 L62.6021,66.7969 M49.6021,85.7969 L36.6021,100.7969 M49.6021,85.7969 L62.6021,100.7969" fill="none" style="stroke:#181818;stroke-width:0.5;"/></g><g class="participant participant-tail" data-participant="Usuario"><text fill="#000000" font-family="sans-serif" font-size="14" lengthAdjust="spacing" textLength="53.2041" x="20" y="400.4561">Usuario</text><ellipse cx="49.6021" cy="412.2578" fill="#E2E2F0" rx="8" ry="8" style="stroke:#181818;stroke-width:0.5;"/><path d="M49.6021,420.2578 L49.6021,447.2578 M36.6021,428.2578 L62.6021,428.2578 M49.6021,447.2578 L36.6021,462.2578 M49.6021,447.2578 L62.6021,462.2578" fill="none" style="stroke:#181818;stroke-width:0.5;"/></g><g class="participant participant-head" data-participant="App"><rect fill="#E2E2F0" height="30.2969" rx="2.5" ry="2.5" style="stroke:#181818;stroke-width:0.5;" width="41.3506" x="364.8887" y="87.2969"/><text fill="#000000" font-family="sans-serif" font-size="14" lengthAdjust="spacing" textLength="27.3506" x="371.8887" y="107.292">App</text></g><g class="participant participant-tail" data-participant="App"><rect fill="#E2E2F0" height="30.2969" rx="2.5" ry="2.5" style="stroke:#181818;stroke-width:0.5;" width="41.3506" x="364.8887" y="387.4609"/><text fill="#000000" font-family="sans-serif" font-size="14" lengthAdjust="spacing" textLength="27.3506" x="371.8887" y="407.4561">App</text></g><g class="participant participant-head" data-participant="DB"><text fill="#000000" font-family="sans-serif" font-size="14" lengthAdjust="spacing" textLength="113.8252" x="625.2285" y="115.292">Banco de Dados</text><path d="M667.1411,66.2969 C667.1411,56.2969 685.1411,56.2969 685.1411,56.2969 C685.1411,56.2969 703.1411,56.2969 703.1411,66.2969 L703.1411,92.2969 C703.1411,102.2969 685.1411,102.2969 685.1411,102.2969 C685.1411,102.2969 667.1411,102.2969 667.1411,92.2969 L667.1411,66.2969" fill="#E2E2F0" style="stroke:#181818;stroke-width:0.5;"/><path d="M667.1411,66.2969 C667.1411,76.2969 685.1411,76.2969 685.1411,76.2969 C685.1411,76.2969 703.1411,76.2969 703.1411,66.2969" fill="none" style="stroke:#181818;stroke-width:0.5;"/></g><g class="participant participant-tail" data-participant="DB"><text fill="#000000" font-family="sans-serif" font-size="14" lengthAdjust="spacing" textLength="113.8252" x="625.2285" y="400.4561">Banco de Dados</text><path d="M667.1411,413.7578 C667.1411,403.7578 685.1411,403.7578 685.1411,403.7578 C685.1411,403.7578 703.1411,403.7578 703.1411,413.7578 L703.1411,439.7578 C703.1411,449.7578 685.1411,449.7578 685.1411,449.7578 C685.1411,449.7578 667.1411,449.7578 667.1411,439.7578 L667.1411,413.7578" fill="#E2E2F0" style="stroke:#181818;stroke-width:0.5;"/><path d="M667.1411,413.7578 C667.1411,423.7578 685.1411,423.7578 685.1411,423.7578 C685.1411,423.7578 703.1411,423.7578 703.1411,413.7578" fill="none" style="stroke:#181818;stroke-width:0.5;"/></g><g class="message" data-participant-1="Usuario" data-participant-2="App"><polygon fill="#181818" points="373.564,145.7266,383.564,149.7266,373.564,153.7266,377.564,149.7266" style="stroke:#181818;stroke-width:1;"/><line style="stroke:#181818;stroke-width:1;" x1="49.6021" x2="379.564" y1="149.7266" y2="149.7266"/><text fill="#000000" font-family="sans-serif" font-size="13" lengthAdjust="spacing" textLength="311.9619" x="56.6021" y="144.6606">Solicita uso do coringa em h&#225;bito n&#227;o conclu&#237;do</text></g><g class="message" data-participant-1="App" data-participant-2="DB"><polygon fill="#181818" points="673.1411,174.8594,683.1411,178.8594,673.1411,182.8594,677.1411,178.8594" style="stroke:#181818;stroke-width:1;"/><line style="stroke:#181818;stroke-width:1;" x1="385.564" x2="679.1411" y1="178.8594" y2="178.8594"/><text fill="#000000" font-family="sans-serif" font-size="13" lengthAdjust="spacing" textLength="224.5166" x="392.564" y="173.7935">Verifica disponibilidade do coringa</text></g><g class="message" data-participant-1="DB" data-participant-2="App"><polygon fill="#181818" points="396.564,203.9922,386.564,207.9922,396.564,211.9922,392.564,207.9922" style="stroke:#181818;stroke-width:1;"/><line style="stroke:#181818;stroke-width:1;stroke-dasharray:2,2;" x1="390.564" x2="684.1411" y1="207.9922" y2="207.9922"/><text fill="#000000" font-family="sans-serif" font-size="13" lengthAdjust="spacing" textLength="258.21" x="402.564" y="202.9263">Retorna status (dispon&#237;vel/indispon&#237;vel)</text></g><path d="M10,222.9922 L74.4429,222.9922 L74.4429,230.125 L64.4429,240.125 L10,240.125 L10,222.9922" fill="#EEEEEE" style="stroke:#000000;stroke-width:1.5;"/><rect fill="none" height="148.4688" style="stroke:#000000;stroke-width:1.5;" width="745.0537" x="10" y="222.9922"/><text fill="#000000" font-family="sans-serif" font-size="13" font-weight="bold" lengthAdjust="spacing" textLength="19.4429" x="25" y="236.0591">alt</text><text fill="#000000" font-family="sans-serif" font-size="11" font-weight="bold" lengthAdjust="spacing" textLength="125.4634" x="89.4429" y="235.2026">[Coringa dispon&#237;vel]</text><g class="message" data-participant-1="App" data-participant-2="DB"><polygon fill="#181818" points="673.1411,257.2578,683.1411,261.2578,673.1411,265.2578,677.1411,261.2578" style="stroke:#181818;stroke-width:1;"/><line style="stroke:#181818;stroke-width:1;" x1="385.564" x2="679.1411" y1="261.2578" y2="261.2578"/><text fill="#000000" font-family="sans-serif" font-size="13" lengthAdjust="spacing" textLength="275.5771" x="392.564" y="256.1919">Marca h&#225;bito como conclu&#237;do com coringa</text></g><g class="message" data-participant-1="DB" data-participant-2="App"><polygon fill="#181818" points="396.564,286.3906,386.564,290.3906,396.564,294.3906,392.564,290.3906" style="stroke:#181818;stroke-width:1;"/><line style="stroke:#181818;stroke-width:1;stroke-dasharray:2,2;" x1="390.564" x2="684.1411" y1="290.3906" y2="290.3906"/><text fill="#000000" font-family="sans-serif" font-size="13" lengthAdjust="spacing" textLength="82.5005" x="402.564" y="285.3247">Confirma&#231;&#227;o</text></g><g class="message" data-participant-1="App" data-participant-2="Usuario"><polygon fill="#181818" points="60.6021,315.5234,50.6021,319.5234,60.6021,323.5234,56.6021,319.5234" style="stroke:#181818;stroke-width:1;"/><line style="stroke:#181818;stroke-width:1;stroke-dasharray:2,2;" x1="54.6021" x2="384.564" y1="319.5234" y2="319.5234"/><text fill="#000000" font-family="sans-serif" font-size="13" lengthAdjust="spacing" textLength="227.8809" x="66.6021" y="314.4575">Exibe sucesso e atualiza progresso</text></g><line style="stroke:#000000;stroke-width:1;stroke-dasharray:2,2;" x1="10" x2="755.0537" y1="328.5234" y2="328.5234"/><text fill="#000000" font-family="sans-serif" font-size="11" font-weight="bold" lengthAdjust="spacing" textLength="137.0649" x="15" y="338.7339">[Coringa indispon&#237;vel]</text><g class="message" data-participant-1="App" data-participant-2="Usuario"><polygon fill="#181818" points="60.6021,359.4609,50.6021,363.4609,60.6021,367.4609,56.6021,363.4609" style="stroke:#181818;stroke-width:1;"/><line style="stroke:#181818;stroke-width:1;stroke-dasharray:2,2;" x1="54.6021" x2="384.564" y1="363.4609" y2="363.4609"/><text fill="#000000" font-family="sans-serif" font-size="13" lengthAdjust="spacing" textLength="266.5698" x="66.6021" y="358.395">Informa que o coringa est&#225; em cooldown</text></g><!--SRC=[RP6nJiCm48PtFyKlfdOe36mPa6Y3118iL6M_s6uvAV6bjWE8jwaOa93w57anRDhG8E7jVFxl_-vtv5XRb4mRJmt1M2pjjkk_d6R23BUhIqpkhJZoHgO5Lf5hVgV-i_yG6C52FBiDdIlIKJnMeIFFebhoaJMtv2AksrOPYbHHi3YRazEIRKeo4iv00ULSgQCGiwlyli1IwgIFX2xy-EY33so3vtvNSHIuZA35wRhhzqPKqcLvEI_mP3slMQTrEBJYk4hGXfBfQP8gvvWDReysmJj2Y1IxWCb1rkzVR7t1RbHDbQ8w3bjZr558PuJmG3xv3wnQcZ5hhdz1id0Cin2tPjySCZwDJUrZI0LkthYo29ss8SLZaQWfVmjQBnkVBvMjKze3vvyT_XzvvzQIJB7jB4PnXzZlSkXQf3RowfHrvXi0]--></g></svg>