<svg xmlns="http://www.w3.org/2000/svg" xmlns:xlink="http://www.w3.org/1999/xlink" contentStyleType="text/css" data-diagram-type="SEQUENCE" height="568px" preserveAspectRatio="none" style="width:757px;height:568px;background:#FFFFFF;" version="1.1" viewBox="0 0 757 568" width="757px" zoomAndPan="magnify"><title>Diagrama de Sequ&#234;ncia - HU1 (Gabriel) : Criar Objetivos Rapidamente</title><defs/><g><text fill="#000000" font-family="sans-serif" font-size="14" font-weight="bold" lengthAdjust="spacing" textLength="553.0889" x="101.3359" y="27.9951">Diagrama de Sequ&#234;ncia - HU1 (Gabriel) : Criar Objetivos Rapidamente</text><g><title>Usuario</title><rect fill="#000000" fill-opacity="0.00000" height="369.5938" width="8" x="30.6021" y="118.5938"/><line style="stroke:#181818;stroke-width:0.5;stroke-dasharray:5,5;" x1="34" x2="34" y1="118.5938" y2="488.1875"/></g><g><title>Interface de Objetivos .front.</title><rect fill="#000000" fill-opacity="0.00000" height="369.5938" width="8" x="279.5693" y="118.5938"/><line style="stroke:#181818;stroke-width:0.5;stroke-dasharray:5,5;" x1="282.5703" x2="282.5703" y1="118.5938" y2="488.1875"/></g><g><title>Sistema de Objetivos .back.</title><rect fill="#000000" fill-opacity="0.00000" height="369.5938" width="8" x="504.252" y="118.5938"/><line style="stroke:#181818;stroke-width:0.5;stroke-dasharray:5,5;" x1="507.5684" x2="507.5684" y1="118.5938" y2="488.1875"/></g><g><title>Banco de Dados</title><rect fill="#000000" fill-opacity="0.00000" height="369.5938" width="8" x="683.8481" y="118.5938"/><line style="stroke:#181818;stroke-width:0.5;stroke-dasharray:5,5;" x1="686.9355" x2="686.9355" y1="118.5938" y2="488.1875"/></g><g class="participant participant-head" data-participant="Usuario"><text fill="#000000" font-family="sans-serif" font-size="14" lengthAdjust="spacing" textLength="53.2041" x="5" y="115.292">Usuario</text><ellipse cx="34.6021" cy="50.7969" fill="#E2E2F0" rx="8" ry="8" style="stroke:#181818;stroke-width:0.5;"/><path d="M34.6021,58.7969 L34.6021,85.7969 M21.6021,66.7969 L47.6021,66.7969 M34.6021,85.7969 L21.6021,100.7969 M34.6021,85.7969 L47.6021,100.7969" fill="none" style="stroke:#181818;stroke-width:0.5;"/></g><g class="participant participant-tail" data-participant="Usuario"><text fill="#000000" font-family="sans-serif" font-size="14" lengthAdjust="spacing" textLength="53.2041" x="5" y="500.1826">Usuario</text><ellipse cx="34.6021" cy="511.9844" fill="#E2E2F0" rx="8" ry="8" style="stroke:#181818;stroke-width:0.5;"/><path d="M34.6021,519.9844 L34.6021,546.9844 M21.6021,527.9844 L47.6021,527.9844 M34.6021,546.9844 L21.6021,561.9844 M34.6021,546.9844 L47.6021,561.9844" fill="none" style="stroke:#181818;stroke-width:0.5;"/></g><g class="participant participant-head" data-participant="UI"><rect fill="#E2E2F0" height="30.2969" rx="2.5" ry="2.5" style="stroke:#181818;stroke-width:0.5;" width="217.998" x="174.5703" y="87.2969"/><text fill="#000000" font-family="sans-serif" font-size="14" lengthAdjust="spacing" textLength="203.998" x="181.5703" y="107.292">Interface de Objetivos (front)</text></g><g class="participant participant-tail" data-participant="UI"><rect fill="#E2E2F0" height="30.2969" rx="2.5" ry="2.5" style="stroke:#181818;stroke-width:0.5;" width="217.998" x="174.5703" y="487.1875"/><text fill="#000000" font-family="sans-serif" font-size="14" lengthAdjust="spacing" textLength="203.998" x="181.5703" y="507.1826">Interface de Objetivos (front)</text></g><g class="participant participant-head" data-participant="SO"><rect fill="#E2E2F0" height="30.2969" rx="2.5" ry="2.5" style="stroke:#181818;stroke-width:0.5;" width="211.3672" x="402.5684" y="87.2969"/><text fill="#000000" font-family="sans-serif" font-size="14" lengthAdjust="spacing" textLength="197.3672" x="409.5684" y="107.292">Sistema de Objetivos (back)</text></g><g class="participant participant-tail" data-participant="SO"><rect fill="#E2E2F0" height="30.2969" rx="2.5" ry="2.5" style="stroke:#181818;stroke-width:0.5;" width="211.3672" x="402.5684" y="487.1875"/><text fill="#000000" font-family="sans-serif" font-size="14" lengthAdjust="spacing" textLength="197.3672" x="409.5684" y="507.1826">Sistema de Objetivos (back)</text></g><g class="participant participant-head" data-participant="BD"><rect fill="#E2E2F0" height="30.2969" rx="2.5" ry="2.5" style="stroke:#181818;stroke-width:0.5;" width="127.8252" x="623.9355" y="87.2969"/><text fill="#000000" font-family="sans-serif" font-size="14" lengthAdjust="spacing" textLength="113.8252" x="630.9355" y="107.292">Banco de Dados</text></g><g class="participant participant-tail" data-participant="BD"><rect fill="#E2E2F0" height="30.2969" rx="2.5" ry="2.5" style="stroke:#181818;stroke-width:0.5;" width="127.8252" x="623.9355" y="487.1875"/><text fill="#000000" font-family="sans-serif" font-size="14" lengthAdjust="spacing" textLength="113.8252" x="630.9355" y="507.1826">Banco de Dados</text></g><g class="message" data-participant-1="Usuario" data-participant-2="UI"><polygon fill="#181818" points="271.5693,145.7266,281.5693,149.7266,271.5693,153.7266,275.5693,149.7266" style="stroke:#181818;stroke-width:1;"/><line style="stroke:#181818;stroke-width:1;" x1="34.6021" x2="277.5693" y1="149.7266" y2="149.7266"/><text fill="#000000" font-family="sans-serif" font-size="13" lengthAdjust="spacing" textLength="180.2798" x="41.6021" y="144.6606">Acessa cria&#231;&#227;o de objetivos</text></g><g class="message" data-participant-1="UI" data-participant-2="Usuario"><polygon fill="#181818" points="45.6021,174.8594,35.6021,178.8594,45.6021,182.8594,41.6021,178.8594" style="stroke:#181818;stroke-width:1;"/><line style="stroke:#181818;stroke-width:1;" x1="39.6021" x2="282.5693" y1="178.8594" y2="178.8594"/><text fill="#000000" font-family="sans-serif" font-size="13" lengthAdjust="spacing" textLength="224.9673" x="51.6021" y="173.7935">Exibe formul&#225;rio simples (Passo 1)</text></g><g class="message" data-participant-1="Usuario" data-participant-2="UI"><polygon fill="#181818" points="271.5693,203.9922,281.5693,207.9922,271.5693,211.9922,275.5693,207.9922" style="stroke:#181818;stroke-width:1;"/><line style="stroke:#181818;stroke-width:1;" x1="34.6021" x2="277.5693" y1="207.9922" y2="207.9922"/><text fill="#000000" font-family="sans-serif" font-size="13" lengthAdjust="spacing" textLength="154.5718" x="41.6021" y="202.9263">Insere t&#237;tulo do objetivo</text></g><g class="message" data-participant-1="UI" data-participant-2="Usuario"><polygon fill="#181818" points="45.6021,233.125,35.6021,237.125,45.6021,241.125,41.6021,237.125" style="stroke:#181818;stroke-width:1;"/><line style="stroke:#181818;stroke-width:1;" x1="39.6021" x2="282.5693" y1="237.125" y2="237.125"/><text fill="#000000" font-family="sans-serif" font-size="13" lengthAdjust="spacing" textLength="206.0005" x="51.6021" y="232.0591">Solicita categoria/tipo (Passo 2)</text></g><g class="message" data-participant-1="Usuario" data-participant-2="UI"><polygon fill="#181818" points="271.5693,262.2578,281.5693,266.2578,271.5693,270.2578,275.5693,266.2578" style="stroke:#181818;stroke-width:1;"/><line style="stroke:#181818;stroke-width:1;" x1="34.6021" x2="277.5693" y1="266.2578" y2="266.2578"/><text fill="#000000" font-family="sans-serif" font-size="13" lengthAdjust="spacing" textLength="128.248" x="41.6021" y="261.1919">Seleciona categoria</text></g><g class="message" data-participant-1="UI" data-participant-2="Usuario"><polygon fill="#181818" points="45.6021,291.3906,35.6021,295.3906,45.6021,299.3906,41.6021,295.3906" style="stroke:#181818;stroke-width:1;"/><line style="stroke:#181818;stroke-width:1;" x1="39.6021" x2="282.5693" y1="295.3906" y2="295.3906"/><text fill="#000000" font-family="sans-serif" font-size="13" lengthAdjust="spacing" textLength="222.8472" x="51.6021" y="290.3247">Solicita frequ&#234;ncia/meta (Passo 3)</text></g><g class="message" data-participant-1="Usuario" data-participant-2="UI"><polygon fill="#181818" points="271.5693,320.5234,281.5693,324.5234,271.5693,328.5234,275.5693,324.5234" style="stroke:#181818;stroke-width:1;"/><line style="stroke:#181818;stroke-width:1;" x1="34.6021" x2="277.5693" y1="324.5234" y2="324.5234"/><text fill="#000000" font-family="sans-serif" font-size="13" lengthAdjust="spacing" textLength="115.9399" x="41.6021" y="319.4575">Define frequ&#234;ncia</text></g><g class="message" data-participant-1="UI" data-participant-2="SO"><polygon fill="#181818" points="496.252,349.6563,506.252,353.6563,496.252,357.6563,500.252,353.6563" style="stroke:#181818;stroke-width:1;"/><line style="stroke:#181818;stroke-width:1;" x1="283.5693" x2="502.252" y1="353.6563" y2="353.6563"/><text fill="#000000" font-family="sans-serif" font-size="13" lengthAdjust="spacing" textLength="160.272" x="290.5693" y="348.5903">Valida dados do objetivo</text></g><g class="message" data-participant-1="SO" data-participant-2="BD"><polygon fill="#181818" points="675.8481,378.7891,685.8481,382.7891,675.8481,386.7891,679.8481,382.7891" style="stroke:#181818;stroke-width:1;"/><line style="stroke:#181818;stroke-width:1;" x1="508.252" x2="681.8481" y1="382.7891" y2="382.7891"/><text fill="#000000" font-family="sans-serif" font-size="13" lengthAdjust="spacing" textLength="127.7656" x="515.252" y="377.7231">Salva novo objetivo</text></g><g class="message" data-participant-1="BD" data-participant-2="SO"><polygon fill="#181818" points="519.252,407.9219,509.252,411.9219,519.252,415.9219,515.252,411.9219" style="stroke:#181818;stroke-width:1;"/><line style="stroke:#181818;stroke-width:1;" x1="513.252" x2="686.8481" y1="411.9219" y2="411.9219"/><text fill="#000000" font-family="sans-serif" font-size="13" lengthAdjust="spacing" textLength="139.5278" x="525.252" y="406.856">Confirma salvamento</text></g><g class="message" data-participant-1="SO" data-participant-2="UI"><polygon fill="#181818" points="294.5693,437.0547,284.5693,441.0547,294.5693,445.0547,290.5693,441.0547" style="stroke:#181818;stroke-width:1;"/><line style="stroke:#181818;stroke-width:1;" x1="288.5693" x2="507.252" y1="441.0547" y2="441.0547"/><text fill="#000000" font-family="sans-serif" font-size="13" lengthAdjust="spacing" textLength="107.4214" x="300.5693" y="435.9888">Retorna sucesso</text></g><g class="message" data-participant-1="UI" data-participant-2="Usuario"><polygon fill="#181818" points="45.6021,466.1875,35.6021,470.1875,45.6021,474.1875,41.6021,470.1875" style="stroke:#181818;stroke-width:1;"/><line style="stroke:#181818;stroke-width:1;" x1="39.6021" x2="282.5693" y1="470.1875" y2="470.1875"/><text fill="#000000" font-family="sans-serif" font-size="13" lengthAdjust="spacing" textLength="214.7539" x="51.6021" y="465.1216">Exibe confirma&#231;&#227;o (&#8804; 5 minutos)</text></g><!--SRC=[TP9DJW9148NtSueAArWGWiOD2nDXZBB2CC5zqTIGqfwkiRk7U0MFOJGnCV4KSnDFOZSmo8zkkz_xwbM_zkmrGSguj5WWB0WoUghgJwCOeGktipwqRt1kcNG71Z2oZ1OcymVol187KonvWGKPJqc2oek5cQlGiYGbMi-AIpGUMkCWi3agYXD-xUtSYl6T5g23sVZGah7pj8cqPvYZUjpeiycXVeX6ILIdk12tbWpJ9Dd6WUvbc320AqNE8QYmH_rHlwqDqk2JsNYjsrW6SFtCSu9SR57f-ZLI71Ubff3Z3fqJw7UE-MFZo1Bu-ijNEj1bHp-6Pw93TX-oeAUbX40zpwKqwBCJT4QQ58lPS_pBpEsknLv1uM1BFJ-XffIpeNt35ffD1d2FEjGBY_YY1xjaaoWPfc4awXM2aTNUxJ1j02CnETlGeeko-4yQRvmzfV1XmZwkYgt8ty-ljeXDNUtlbtUuW89DvSLrVW00]--></g></svg>