<svg xmlns="http://www.w3.org/2000/svg" xmlns:xlink="http://www.w3.org/1999/xlink" contentStyleType="text/css" data-diagram-type="SEQUENCE" height="517px" preserveAspectRatio="none" style="width:924px;height:517px;background:#FFFFFF;" version="1.1" viewBox="0 0 924 517" width="924px" zoomAndPan="magnify"><title>Diagrama de Sequencia - HU1 (Gabriel): Notifica&#231;&#227;o de Nova Coloca&#231;&#227;o no Streak</title><defs/><g><text fill="#000000" font-family="sans-serif" font-size="14" font-weight="bold" lengthAdjust="spacing" textLength="644.1572" x="141.5269" y="27.9951">Diagrama de Sequencia - HU1 (Gabriel): Notifica&#231;&#227;o de Nova Coloca&#231;&#227;o no Streak</text><rect fill="none" height="154.7969" style="stroke:#000000;stroke-width:1.5;" width="909.2109" x="9" y="265.125"/><g><title>Usu.rio</title><rect fill="#000000" fill-opacity="0.00000" height="318.3281" width="8" x="127.6021" y="118.5938"/><line style="stroke:#181818;stroke-width:0.5;stroke-dasharray:5,5;" x1="131" x2="131" y1="118.5938" y2="436.9219"/></g><g><title>App Mobile</title><rect fill="#000000" fill-opacity="0.00000" height="318.3281" width="8" x="342.6348" y="118.5938"/><line style="stroke:#181818;stroke-width:0.5;stroke-dasharray:5,5;" x1="345.7725" x2="345.7725" y1="118.5938" y2="436.9219"/></g><g><title>Sistema de Streaks</title><rect fill="#000000" fill-opacity="0.00000" height="318.3281" width="8" x="473.2549" y="118.5938"/><line style="stroke:#181818;stroke-width:0.5;stroke-dasharray:5,5;" x1="476.4971" x2="476.4971" y1="118.5938" y2="436.9219"/></g><g><title>Sistema de Ranking</title><rect fill="#000000" fill-opacity="0.00000" height="318.3281" width="8" x="634.876" y="118.5938"/><line style="stroke:#181818;stroke-width:0.5;stroke-dasharray:5,5;" x1="638.0127" x2="638.0127" y1="118.5938" y2="436.9219"/></g><g><title>Sistema de Notifica..es</title><rect fill="#000000" fill-opacity="0.00000" height="318.3281" width="8" x="812.9751" y="118.5938"/><line style="stroke:#181818;stroke-width:0.5;stroke-dasharray:5,5;" x1="816.7393" x2="816.7393" y1="118.5938" y2="436.9219"/></g><g class="participant participant-head" data-participant="U"><text fill="#000000" font-family="sans-serif" font-size="14" lengthAdjust="spacing" textLength="53.2041" x="102" y="115.292">Usu&#225;rio</text><ellipse cx="131.6021" cy="50.7969" fill="#E2E2F0" rx="8" ry="8" style="stroke:#181818;stroke-width:0.5;"/><path d="M131.6021,58.7969 L131.6021,85.7969 M118.6021,66.7969 L144.6021,66.7969 M131.6021,85.7969 L118.6021,100.7969 M131.6021,85.7969 L144.6021,100.7969" fill="none" style="stroke:#181818;stroke-width:0.5;"/></g><g class="participant participant-tail" data-participant="U"><text fill="#000000" font-family="sans-serif" font-size="14" lengthAdjust="spacing" textLength="53.2041" x="102" y="448.917">Usu&#225;rio</text><ellipse cx="131.6021" cy="460.7188" fill="#E2E2F0" rx="8" ry="8" style="stroke:#181818;stroke-width:0.5;"/><path d="M131.6021,468.7188 L131.6021,495.7188 M118.6021,476.7188 L144.6021,476.7188 M131.6021,495.7188 L118.6021,510.7188 M131.6021,495.7188 L144.6021,510.7188" fill="none" style="stroke:#181818;stroke-width:0.5;"/></g><g class="participant participant-head" data-participant="App"><rect fill="#E2E2F0" height="30.2969" rx="2.5" ry="2.5" style="stroke:#181818;stroke-width:0.5;" width="91.7246" x="300.7725" y="87.2969"/><text fill="#000000" font-family="sans-serif" font-size="14" lengthAdjust="spacing" textLength="77.7246" x="307.7725" y="107.292">App Mobile</text></g><g class="participant participant-tail" data-participant="App"><rect fill="#E2E2F0" height="30.2969" rx="2.5" ry="2.5" style="stroke:#181818;stroke-width:0.5;" width="91.7246" x="300.7725" y="435.9219"/><text fill="#000000" font-family="sans-serif" font-size="14" lengthAdjust="spacing" textLength="77.7246" x="307.7725" y="455.917">App Mobile</text></g><g class="participant participant-head" data-participant="SS"><rect fill="#E2E2F0" height="30.2969" rx="2.5" ry="2.5" style="stroke:#181818;stroke-width:0.5;" width="149.5156" x="402.4971" y="87.2969"/><text fill="#000000" font-family="sans-serif" font-size="14" lengthAdjust="spacing" textLength="135.5156" x="409.4971" y="107.292">Sistema de Streaks</text></g><g class="participant participant-tail" data-participant="SS"><rect fill="#E2E2F0" height="30.2969" rx="2.5" ry="2.5" style="stroke:#181818;stroke-width:0.5;" width="149.5156" x="402.4971" y="435.9219"/><text fill="#000000" font-family="sans-serif" font-size="14" lengthAdjust="spacing" textLength="135.5156" x="409.4971" y="455.917">Sistema de Streaks</text></g><g class="participant participant-head" data-participant="SR"><rect fill="#E2E2F0" height="30.2969" rx="2.5" ry="2.5" style="stroke:#181818;stroke-width:0.5;" width="153.7266" x="562.0127" y="87.2969"/><text fill="#000000" font-family="sans-serif" font-size="14" lengthAdjust="spacing" textLength="139.7266" x="569.0127" y="107.292">Sistema de Ranking</text></g><g class="participant participant-tail" data-participant="SR"><rect fill="#E2E2F0" height="30.2969" rx="2.5" ry="2.5" style="stroke:#181818;stroke-width:0.5;" width="153.7266" x="562.0127" y="435.9219"/><text fill="#000000" font-family="sans-serif" font-size="14" lengthAdjust="spacing" textLength="139.7266" x="569.0127" y="455.917">Sistema de Ranking</text></g><g class="participant participant-head" data-participant="SN"><rect fill="#E2E2F0" height="30.2969" rx="2.5" ry="2.5" style="stroke:#181818;stroke-width:0.5;" width="182.4717" x="725.7393" y="87.2969"/><text fill="#000000" font-family="sans-serif" font-size="14" lengthAdjust="spacing" textLength="168.4717" x="732.7393" y="107.292">Sistema de Notifica&#231;&#245;es</text></g><g class="participant participant-tail" data-participant="SN"><rect fill="#E2E2F0" height="30.2969" rx="2.5" ry="2.5" style="stroke:#181818;stroke-width:0.5;" width="182.4717" x="725.7393" y="435.9219"/><text fill="#000000" font-family="sans-serif" font-size="14" lengthAdjust="spacing" textLength="168.4717" x="732.7393" y="455.917">Sistema de Notifica&#231;&#245;es</text></g><g class="message" data-participant-1="U" data-participant-2="App"><polygon fill="#181818" points="334.6348,145.7266,344.6348,149.7266,334.6348,153.7266,338.6348,149.7266" style="stroke:#181818;stroke-width:1;"/><line style="stroke:#181818;stroke-width:1;" x1="131.6021" x2="340.6348" y1="149.7266" y2="149.7266"/><text fill="#000000" font-family="sans-serif" font-size="13" lengthAdjust="spacing" textLength="191.0327" x="138.6021" y="144.6606">Marca h&#225;bito como conclu&#237;do</text></g><g class="message" data-participant-1="App" data-participant-2="SS"><polygon fill="#181818" points="465.2549,174.8594,475.2549,178.8594,465.2549,182.8594,469.2549,178.8594" style="stroke:#181818;stroke-width:1;"/><line style="stroke:#181818;stroke-width:1;" x1="346.6348" x2="471.2549" y1="178.8594" y2="178.8594"/><text fill="#000000" font-family="sans-serif" font-size="13" lengthAdjust="spacing" textLength="97.0493" x="353.6348" y="173.7935">Atualiza streak</text></g><g class="message" data-participant-1="SS" data-participant-2="SR"><polygon fill="#181818" points="626.876,203.9922,636.876,207.9922,626.876,211.9922,630.876,207.9922" style="stroke:#181818;stroke-width:1;"/><line style="stroke:#181818;stroke-width:1;" x1="477.2549" x2="632.876" y1="207.9922" y2="207.9922"/><text fill="#000000" font-family="sans-serif" font-size="13" lengthAdjust="spacing" textLength="116.0352" x="484.2549" y="202.9263">Recalcula ranking</text></g><g class="message" data-participant-1="SR" data-participant-2="SR"><line style="stroke:#181818;stroke-width:1;" x1="638.876" x2="680.876" y1="237.125" y2="237.125"/><line style="stroke:#181818;stroke-width:1;" x1="680.876" x2="680.876" y1="237.125" y2="250.125"/><line style="stroke:#181818;stroke-width:1;" x1="639.876" x2="680.876" y1="250.125" y2="250.125"/><polygon fill="#181818" points="649.876,246.125,639.876,250.125,649.876,254.125,645.876,250.125" style="stroke:#181818;stroke-width:1;"/><text fill="#000000" font-family="sans-serif" font-size="13" lengthAdjust="spacing" textLength="154.1147" x="645.876" y="232.0591">Verifica nova coloca&#231;&#227;o</text></g><path d="M9,265.125 L73.4429,265.125 L73.4429,272.2578 L63.4429,282.2578 L9,282.2578 L9,265.125" fill="#EEEEEE" style="stroke:#000000;stroke-width:1.5;"/><rect fill="none" height="154.7969" style="stroke:#000000;stroke-width:1.5;" width="909.2109" x="9" y="265.125"/><text fill="#000000" font-family="sans-serif" font-size="13" font-weight="bold" lengthAdjust="spacing" textLength="19.4429" x="24" y="278.1919">alt</text><text fill="#000000" font-family="sans-serif" font-size="11" font-weight="bold" lengthAdjust="spacing" textLength="172.1274" x="88.4429" y="277.3354">[Nova coloca&#231;&#227;o alcan&#231;ada]</text><g class="message" data-participant-1="SR" data-participant-2="SN"><polygon fill="#181818" points="804.9751,299.3906,814.9751,303.3906,804.9751,307.3906,808.9751,303.3906" style="stroke:#181818;stroke-width:1;"/><line style="stroke:#181818;stroke-width:1;" x1="638.876" x2="810.9751" y1="303.3906" y2="303.3906"/><text fill="#000000" font-family="sans-serif" font-size="13" lengthAdjust="spacing" textLength="125.3281" x="645.876" y="298.3247">Dispara notifica&#231;&#227;o</text></g><g class="message" data-participant-1="SN" data-participant-2="App"><polygon fill="#181818" points="357.6348,328.5234,347.6348,332.5234,357.6348,336.5234,353.6348,332.5234" style="stroke:#181818;stroke-width:1;"/><line style="stroke:#181818;stroke-width:1;" x1="351.6348" x2="815.9751" y1="332.5234" y2="332.5234"/><text fill="#000000" font-family="sans-serif" font-size="13" lengthAdjust="spacing" textLength="146.7642" x="363.6348" y="327.4575">Envia notifica&#231;&#227;o push</text></g><g class="message" data-participant-1="App" data-participant-2="U"><polygon fill="#181818" points="142.6021,357.6563,132.6021,361.6563,142.6021,365.6563,138.6021,361.6563" style="stroke:#181818;stroke-width:1;"/><line style="stroke:#181818;stroke-width:1;" x1="136.6021" x2="345.6348" y1="361.6563" y2="361.6563"/><text fill="#000000" font-family="sans-serif" font-size="13" lengthAdjust="spacing" textLength="111.1729" x="148.6021" y="356.5903">Exibe notifica&#231;&#227;o</text></g><path d="M19,374.6563 L19,414.6563 L243,414.6563 L243,384.6563 L233,374.6563 L19,374.6563" fill="#FEFFDD" style="stroke:#181818;stroke-width:0.5;"/><path d="M233,374.6563 L233,384.6563 L243,384.6563 L233,374.6563" fill="#FEFFDD" style="stroke:#181818;stroke-width:0.5;"/><text fill="#000000" font-family="sans-serif" font-size="13" lengthAdjust="spacing" textLength="203.6011" x="25" y="391.7231">"Voc&#234; subiu para 3&#170; coloca&#231;&#227;o!</text><text fill="#000000" font-family="sans-serif" font-size="13" lengthAdjust="spacing" textLength="159.3008" x="25" y="406.856">Voc&#234; passou Jo&#227;o Silva."</text><!--SRC=[TP6_JiCm4CPtFyMH2OOY8ROCI1KW458pn4edbejZsbDTE_XFX7YRYg5I9KPUWBmOJj92GDI39T_zzDttdJrv9U66S65nZL19uF8vI2q8OGBtnGMStc5fIQgp53BZwOa4jjlspNHiPXg4QwFCeQODS6ybhXX3uOs5meLsOya0EYXOZTQJe1grXsHQrp0p9IcPTDtu_DtdvBpSU-erNSznVXJBKQz8BmOiFugDOdp8lMZ6M06Jgyv52ZEq0c7PRaho1eHPTvSMAhJlbM6TxqXodiBK1rJqYk26q9ptdJo5N0fK8YW4EvXYF3_qvjBsy-Esulh4p_hYqfGVbZggGXH2tMwnGWRnx8MoD7wRYnaxdT6_34ps7UPMD_G7WJguPS_jinGHUw5I_gCKAn9C8sq79NCZsXsuK5A0VlJbvsxizUHH3qYDpfa03wORnqarU9umgQil]--></g></svg>